<mxfile host="app.diagrams.net" modified="2024-01-03T10:46:09.371Z" agent="Mozilla/5.0 (Macintosh; Intel Mac OS X 10_15_7) AppleWebKit/537.36 (KHTML, like Gecko) Chrome/120.0.0.0 Safari/537.36" etag="mwlz5Qkpk5f7AYJhOmY5" version="22.1.16" type="github">
  <diagram name="Page-1" id="2YBvvXClWsGukQMizWep">
    <mxGraphModel dx="1908" dy="2262" grid="1" gridSize="10" guides="1" tooltips="1" connect="1" arrows="1" fold="1" page="1" pageScale="1" pageWidth="850" pageHeight="1100" math="0" shadow="0">
      <root>
        <mxCell id="0" />
        <mxCell id="1" parent="0" />
        <mxCell id="VyoIaBS4ln-BdQcuWxB6-107" value="" style="rounded=0;whiteSpace=wrap;html=1;shadow=1;" vertex="1" parent="1">
          <mxGeometry x="45" y="-120" width="790" height="740" as="geometry" />
        </mxCell>
        <mxCell id="VyoIaBS4ln-BdQcuWxB6-11" value="" style="whiteSpace=wrap;html=1;aspect=fixed;" vertex="1" parent="1">
          <mxGeometry x="305" y="280" width="280" height="280" as="geometry" />
        </mxCell>
        <mxCell id="VyoIaBS4ln-BdQcuWxB6-109" value="" style="edgeStyle=orthogonalEdgeStyle;rounded=0;orthogonalLoop=1;jettySize=auto;html=1;" edge="1" parent="1" source="VyoIaBS4ln-BdQcuWxB6-9" target="VyoIaBS4ln-BdQcuWxB6-11">
          <mxGeometry relative="1" as="geometry" />
        </mxCell>
        <mxCell id="VyoIaBS4ln-BdQcuWxB6-9" value="FIREWALL&lt;br&gt;(with rule whitelisting)" style="rounded=0;whiteSpace=wrap;html=1;fontStyle=1" vertex="1" parent="1">
          <mxGeometry x="85" y="120" width="720" height="80" as="geometry" />
        </mxCell>
        <mxCell id="VyoIaBS4ln-BdQcuWxB6-12" value="STREAMER" style="rounded=0;whiteSpace=wrap;html=1;" vertex="1" parent="1">
          <mxGeometry x="351" y="335" width="80" height="60" as="geometry" />
        </mxCell>
        <mxCell id="VyoIaBS4ln-BdQcuWxB6-21" style="edgeStyle=orthogonalEdgeStyle;rounded=0;orthogonalLoop=1;jettySize=auto;html=1;entryX=0.5;entryY=0;entryDx=0;entryDy=0;dashed=1;curved=0;startArrow=open;startFill=0;endArrow=open;endFill=0;" edge="1" parent="1" source="VyoIaBS4ln-BdQcuWxB6-13" target="VyoIaBS4ln-BdQcuWxB6-14">
          <mxGeometry relative="1" as="geometry">
            <Array as="points">
              <mxPoint x="466" y="460" />
              <mxPoint x="339" y="460" />
            </Array>
          </mxGeometry>
        </mxCell>
        <mxCell id="VyoIaBS4ln-BdQcuWxB6-24" value="" style="edgeStyle=orthogonalEdgeStyle;rounded=0;orthogonalLoop=1;jettySize=auto;html=1;dashed=1;curved=0;startArrow=open;startFill=0;endArrow=open;endFill=0;" edge="1" parent="1">
          <mxGeometry relative="1" as="geometry">
            <mxPoint x="501.05882352941194" y="394" as="sourcePoint" />
            <mxPoint x="500.5" y="500" as="targetPoint" />
            <Array as="points">
              <mxPoint x="501" y="460" />
              <mxPoint x="501" y="460" />
            </Array>
          </mxGeometry>
        </mxCell>
        <mxCell id="VyoIaBS4ln-BdQcuWxB6-25" style="edgeStyle=orthogonalEdgeStyle;rounded=0;orthogonalLoop=1;jettySize=auto;html=1;entryX=0.5;entryY=0;entryDx=0;entryDy=0;dashed=1;curved=0;startArrow=open;startFill=0;endArrow=open;endFill=0;" edge="1" parent="1">
          <mxGeometry relative="1" as="geometry">
            <mxPoint x="489.0588235294117" y="394" as="sourcePoint" />
            <mxPoint x="449" y="500" as="targetPoint" />
            <Array as="points">
              <mxPoint x="489" y="480" />
              <mxPoint x="449" y="480" />
            </Array>
          </mxGeometry>
        </mxCell>
        <mxCell id="VyoIaBS4ln-BdQcuWxB6-26" style="edgeStyle=orthogonalEdgeStyle;rounded=0;orthogonalLoop=1;jettySize=auto;html=1;entryX=0.5;entryY=0;entryDx=0;entryDy=0;dashed=1;curved=0;startArrow=open;startFill=0;endArrow=open;endFill=0;" edge="1" parent="1">
          <mxGeometry relative="1" as="geometry">
            <mxPoint x="513.0588235294117" y="394" as="sourcePoint" />
            <mxPoint x="555.5" y="500" as="targetPoint" />
            <Array as="points">
              <mxPoint x="513" y="480" />
              <mxPoint x="556" y="480" />
            </Array>
          </mxGeometry>
        </mxCell>
        <mxCell id="VyoIaBS4ln-BdQcuWxB6-28" style="edgeStyle=orthogonalEdgeStyle;rounded=0;orthogonalLoop=1;jettySize=auto;html=1;entryX=0.5;entryY=0;entryDx=0;entryDy=0;dashed=1;curved=0;startArrow=open;startFill=0;endArrow=open;endFill=0;" edge="1" parent="1">
          <mxGeometry relative="1" as="geometry">
            <mxPoint x="478.0588235294117" y="394" as="sourcePoint" />
            <mxPoint x="395.5" y="500" as="targetPoint" />
            <Array as="points">
              <mxPoint x="478" y="470" />
              <mxPoint x="396" y="470" />
            </Array>
          </mxGeometry>
        </mxCell>
        <mxCell id="VyoIaBS4ln-BdQcuWxB6-13" value="JARVIS" style="rounded=0;whiteSpace=wrap;html=1;" vertex="1" parent="1">
          <mxGeometry x="450" y="334" width="80" height="60" as="geometry" />
        </mxCell>
        <mxCell id="VyoIaBS4ln-BdQcuWxB6-14" value="" style="ellipse;whiteSpace=wrap;html=1;dashed=1;" vertex="1" parent="1">
          <mxGeometry x="316" y="500" width="45" height="40" as="geometry" />
        </mxCell>
        <mxCell id="VyoIaBS4ln-BdQcuWxB6-15" value="" style="ellipse;whiteSpace=wrap;html=1;dashed=1;" vertex="1" parent="1">
          <mxGeometry x="371" y="500" width="45" height="40" as="geometry" />
        </mxCell>
        <mxCell id="VyoIaBS4ln-BdQcuWxB6-17" value="" style="ellipse;whiteSpace=wrap;html=1;dashed=1;" vertex="1" parent="1">
          <mxGeometry x="423.5" y="500" width="45" height="40" as="geometry" />
        </mxCell>
        <mxCell id="VyoIaBS4ln-BdQcuWxB6-18" value="" style="ellipse;whiteSpace=wrap;html=1;dashed=1;" vertex="1" parent="1">
          <mxGeometry x="481" y="500" width="45" height="40" as="geometry" />
        </mxCell>
        <mxCell id="VyoIaBS4ln-BdQcuWxB6-19" value="" style="ellipse;whiteSpace=wrap;html=1;dashed=1;" vertex="1" parent="1">
          <mxGeometry x="536" y="500" width="45" height="40" as="geometry" />
        </mxCell>
        <mxCell id="VyoIaBS4ln-BdQcuWxB6-35" value="&lt;pre&gt;&lt;font style=&quot;font-size: 6px;&quot;&gt;MICROSERVICES&lt;/font&gt;&lt;/pre&gt;" style="text;html=1;strokeColor=none;fillColor=none;align=center;verticalAlign=middle;whiteSpace=wrap;rounded=0;" vertex="1" parent="1">
          <mxGeometry x="418.5" y="541" width="55" height="18" as="geometry" />
        </mxCell>
        <mxCell id="VyoIaBS4ln-BdQcuWxB6-36" value="" style="endArrow=none;dashed=1;html=1;dashPattern=1 1;strokeWidth=1;rounded=0;entryX=0;entryY=0.5;entryDx=0;entryDy=0;" edge="1" parent="1" target="VyoIaBS4ln-BdQcuWxB6-35">
          <mxGeometry width="50" height="50" relative="1" as="geometry">
            <mxPoint x="336" y="540" as="sourcePoint" />
            <mxPoint x="386" y="490" as="targetPoint" />
            <Array as="points">
              <mxPoint x="336" y="550" />
              <mxPoint x="376" y="550" />
            </Array>
          </mxGeometry>
        </mxCell>
        <mxCell id="VyoIaBS4ln-BdQcuWxB6-38" value="" style="endArrow=none;dashed=1;html=1;dashPattern=1 1;strokeWidth=1;rounded=0;entryX=0.5;entryY=1;entryDx=0;entryDy=0;exitX=1;exitY=0.5;exitDx=0;exitDy=0;" edge="1" parent="1" source="VyoIaBS4ln-BdQcuWxB6-35" target="VyoIaBS4ln-BdQcuWxB6-19">
          <mxGeometry width="50" height="50" relative="1" as="geometry">
            <mxPoint x="476" y="550" as="sourcePoint" />
            <mxPoint x="523.5" y="500" as="targetPoint" />
            <Array as="points">
              <mxPoint x="559" y="550" />
            </Array>
          </mxGeometry>
        </mxCell>
        <mxCell id="VyoIaBS4ln-BdQcuWxB6-41" value="RTSP" style="text;html=1;strokeColor=none;fillColor=none;align=center;verticalAlign=middle;whiteSpace=wrap;rounded=0;fontStyle=0" vertex="1" parent="1">
          <mxGeometry x="246" y="398" width="60" height="30" as="geometry" />
        </mxCell>
        <mxCell id="VyoIaBS4ln-BdQcuWxB6-42" value="JARVIS RHEL SERVER" style="text;html=1;strokeColor=none;fillColor=none;align=center;verticalAlign=middle;whiteSpace=wrap;rounded=0;fontStyle=1" vertex="1" parent="1">
          <mxGeometry x="346" y="569" width="200" height="30" as="geometry" />
        </mxCell>
        <mxCell id="VyoIaBS4ln-BdQcuWxB6-47" value="" style="edgeStyle=orthogonalEdgeStyle;rounded=0;orthogonalLoop=1;jettySize=auto;html=1;dashed=1;startArrow=classic;startFill=0;" edge="1" parent="1" source="VyoIaBS4ln-BdQcuWxB6-43" target="VyoIaBS4ln-BdQcuWxB6-11">
          <mxGeometry relative="1" as="geometry" />
        </mxCell>
        <mxCell id="VyoIaBS4ln-BdQcuWxB6-43" value="CLIENT WORKSTATION" style="rounded=1;whiteSpace=wrap;html=1;" vertex="1" parent="1">
          <mxGeometry x="705" y="310" width="100" height="60" as="geometry" />
        </mxCell>
        <mxCell id="VyoIaBS4ln-BdQcuWxB6-48" value="" style="edgeStyle=orthogonalEdgeStyle;rounded=0;orthogonalLoop=1;jettySize=auto;html=1;dashed=1;startArrow=classic;startFill=0;" edge="1" parent="1" source="VyoIaBS4ln-BdQcuWxB6-44" target="VyoIaBS4ln-BdQcuWxB6-11">
          <mxGeometry relative="1" as="geometry" />
        </mxCell>
        <mxCell id="VyoIaBS4ln-BdQcuWxB6-44" value="CLIENT&lt;br&gt;MOBILE" style="rounded=1;whiteSpace=wrap;html=1;" vertex="1" parent="1">
          <mxGeometry x="705" y="390" width="100" height="60" as="geometry" />
        </mxCell>
        <mxCell id="VyoIaBS4ln-BdQcuWxB6-50" style="edgeStyle=orthogonalEdgeStyle;rounded=0;orthogonalLoop=1;jettySize=auto;html=1;entryX=1;entryY=0.5;entryDx=0;entryDy=0;dashed=1;startArrow=classic;startFill=0;" edge="1" parent="1" source="VyoIaBS4ln-BdQcuWxB6-45" target="VyoIaBS4ln-BdQcuWxB6-11">
          <mxGeometry relative="1" as="geometry">
            <mxPoint x="675" y="410" as="targetPoint" />
          </mxGeometry>
        </mxCell>
        <mxCell id="VyoIaBS4ln-BdQcuWxB6-45" value="CLIENT&lt;br&gt;PC" style="rounded=1;whiteSpace=wrap;html=1;" vertex="1" parent="1">
          <mxGeometry x="705" y="470" width="100" height="60" as="geometry" />
        </mxCell>
        <mxCell id="VyoIaBS4ln-BdQcuWxB6-79" value="" style="rounded=1;whiteSpace=wrap;html=1;" vertex="1" parent="1">
          <mxGeometry x="80" y="279" width="125" height="121" as="geometry" />
        </mxCell>
        <mxCell id="VyoIaBS4ln-BdQcuWxB6-80" value="&lt;b&gt;PHYSICAL SECURITY&lt;br&gt;NETWORK&lt;/b&gt;" style="text;html=1;strokeColor=none;fillColor=none;align=center;verticalAlign=middle;whiteSpace=wrap;rounded=0;" vertex="1" parent="1">
          <mxGeometry x="74.5" y="244" width="140" height="30" as="geometry" />
        </mxCell>
        <mxCell id="VyoIaBS4ln-BdQcuWxB6-91" style="edgeStyle=orthogonalEdgeStyle;rounded=0;orthogonalLoop=1;jettySize=auto;html=1;" edge="1" parent="1" source="VyoIaBS4ln-BdQcuWxB6-81" target="VyoIaBS4ln-BdQcuWxB6-88">
          <mxGeometry relative="1" as="geometry" />
        </mxCell>
        <mxCell id="VyoIaBS4ln-BdQcuWxB6-81" value="" style="rounded=1;whiteSpace=wrap;html=1;" vertex="1" parent="1">
          <mxGeometry x="85" y="440" width="120" height="110" as="geometry" />
        </mxCell>
        <mxCell id="VyoIaBS4ln-BdQcuWxB6-82" value="&lt;b&gt;O&amp;amp;M N/W&lt;/b&gt;" style="text;html=1;strokeColor=none;fillColor=none;align=center;verticalAlign=middle;whiteSpace=wrap;rounded=0;" vertex="1" parent="1">
          <mxGeometry x="59.5" y="546" width="170" height="30" as="geometry" />
        </mxCell>
        <mxCell id="VyoIaBS4ln-BdQcuWxB6-76" value="O&amp;amp;M&lt;br&gt;IP Cameras" style="rounded=1;whiteSpace=wrap;html=1;shadow=1;" vertex="1" parent="1">
          <mxGeometry x="102" y="458" width="90" height="31" as="geometry" />
        </mxCell>
        <mxCell id="VyoIaBS4ln-BdQcuWxB6-78" value="O&amp;amp;M&lt;br&gt;NVR Cameras" style="rounded=1;whiteSpace=wrap;html=1;shadow=1;" vertex="1" parent="1">
          <mxGeometry x="102" y="501.5" width="90" height="31" as="geometry" />
        </mxCell>
        <mxCell id="VyoIaBS4ln-BdQcuWxB6-87" value="O&amp;amp;M&lt;br&gt;IP Cameras" style="rounded=1;whiteSpace=wrap;html=1;shadow=1;" vertex="1" parent="1">
          <mxGeometry x="104" y="297" width="90" height="30" as="geometry" />
        </mxCell>
        <mxCell id="VyoIaBS4ln-BdQcuWxB6-89" style="edgeStyle=orthogonalEdgeStyle;rounded=0;orthogonalLoop=1;jettySize=auto;html=1;startArrow=ERoneToMany;startFill=0;" edge="1" parent="1" source="VyoIaBS4ln-BdQcuWxB6-88" target="VyoIaBS4ln-BdQcuWxB6-12">
          <mxGeometry relative="1" as="geometry">
            <Array as="points">
              <mxPoint x="315" y="364" />
              <mxPoint x="315" y="364" />
            </Array>
          </mxGeometry>
        </mxCell>
        <mxCell id="VyoIaBS4ln-BdQcuWxB6-88" value="GENETEC&lt;br&gt;VMS" style="rounded=1;whiteSpace=wrap;html=1;shadow=1;" vertex="1" parent="1">
          <mxGeometry x="100" y="348" width="90" height="31" as="geometry" />
        </mxCell>
        <mxCell id="VyoIaBS4ln-BdQcuWxB6-93" value="" style="endArrow=classic;html=1;rounded=0;entryX=0.5;entryY=0;entryDx=0;entryDy=0;" edge="1" parent="1" target="VyoIaBS4ln-BdQcuWxB6-88">
          <mxGeometry width="50" height="50" relative="1" as="geometry">
            <mxPoint x="145" y="329" as="sourcePoint" />
            <mxPoint x="192" y="279" as="targetPoint" />
          </mxGeometry>
        </mxCell>
        <mxCell id="VyoIaBS4ln-BdQcuWxB6-112" value="" style="edgeStyle=orthogonalEdgeStyle;rounded=0;orthogonalLoop=1;jettySize=auto;html=1;" edge="1" parent="1" source="VyoIaBS4ln-BdQcuWxB6-94" target="VyoIaBS4ln-BdQcuWxB6-9">
          <mxGeometry relative="1" as="geometry" />
        </mxCell>
        <mxCell id="VyoIaBS4ln-BdQcuWxB6-94" value="" style="ellipse;whiteSpace=wrap;html=1;" vertex="1" parent="1">
          <mxGeometry x="405" y="-40" width="80" height="80" as="geometry" />
        </mxCell>
        <mxCell id="VyoIaBS4ln-BdQcuWxB6-95" value="" style="endArrow=none;html=1;rounded=0;exitX=0.5;exitY=1;exitDx=0;exitDy=0;" edge="1" parent="1">
          <mxGeometry width="50" height="50" relative="1" as="geometry">
            <mxPoint x="445" y="40" as="sourcePoint" />
            <mxPoint x="445" y="-40" as="targetPoint" />
          </mxGeometry>
        </mxCell>
        <mxCell id="VyoIaBS4ln-BdQcuWxB6-96" value="" style="endArrow=none;html=1;rounded=0;exitX=0.4;exitY=0.988;exitDx=0;exitDy=0;curved=1;exitPerimeter=0;" edge="1" parent="1" source="VyoIaBS4ln-BdQcuWxB6-94">
          <mxGeometry width="50" height="50" relative="1" as="geometry">
            <mxPoint x="436" y="37" as="sourcePoint" />
            <mxPoint x="436" y="-38" as="targetPoint" />
            <Array as="points">
              <mxPoint x="426" y="-3" />
            </Array>
          </mxGeometry>
        </mxCell>
        <mxCell id="VyoIaBS4ln-BdQcuWxB6-97" value="" style="endArrow=none;html=1;rounded=0;curved=1;entryX=0.769;entryY=0.075;entryDx=0;entryDy=0;entryPerimeter=0;exitX=0.749;exitY=0.899;exitDx=0;exitDy=0;exitPerimeter=0;" edge="1" parent="1">
          <mxGeometry width="50" height="50" relative="1" as="geometry">
            <mxPoint x="464.91999999999996" y="33.92000000000007" as="sourcePoint" />
            <mxPoint x="466.52" y="-32" as="targetPoint" />
            <Array as="points">
              <mxPoint x="476" y="-3" />
            </Array>
          </mxGeometry>
        </mxCell>
        <mxCell id="VyoIaBS4ln-BdQcuWxB6-98" value="" style="endArrow=none;html=1;rounded=0;exitX=0.5;exitY=1;exitDx=0;exitDy=0;curved=1;" edge="1" parent="1">
          <mxGeometry width="50" height="50" relative="1" as="geometry">
            <mxPoint x="456" y="37.5" as="sourcePoint" />
            <mxPoint x="456" y="-37.5" as="targetPoint" />
            <Array as="points">
              <mxPoint x="466" y="2.5" />
            </Array>
          </mxGeometry>
        </mxCell>
        <mxCell id="VyoIaBS4ln-BdQcuWxB6-99" value="" style="endArrow=none;html=1;rounded=0;curved=1;entryX=0.291;entryY=0.056;entryDx=0;entryDy=0;entryPerimeter=0;" edge="1" parent="1" target="VyoIaBS4ln-BdQcuWxB6-94">
          <mxGeometry width="50" height="50" relative="1" as="geometry">
            <mxPoint x="427" y="34.5" as="sourcePoint" />
            <mxPoint x="429" y="-34.5" as="targetPoint" />
            <Array as="points">
              <mxPoint x="407" y="4.5" />
            </Array>
          </mxGeometry>
        </mxCell>
        <mxCell id="VyoIaBS4ln-BdQcuWxB6-100" value="" style="endArrow=none;html=1;rounded=0;entryX=0.969;entryY=0.313;entryDx=0;entryDy=0;entryPerimeter=0;curved=1;" edge="1" parent="1">
          <mxGeometry width="50" height="50" relative="1" as="geometry">
            <mxPoint x="409" y="-14" as="sourcePoint" />
            <mxPoint x="481.51999999999987" y="-13.960000000000036" as="targetPoint" />
            <Array as="points">
              <mxPoint x="445" y="-34" />
            </Array>
          </mxGeometry>
        </mxCell>
        <mxCell id="VyoIaBS4ln-BdQcuWxB6-101" value="" style="endArrow=none;html=1;rounded=0;entryX=1;entryY=0.5;entryDx=0;entryDy=0;" edge="1" parent="1" target="VyoIaBS4ln-BdQcuWxB6-94">
          <mxGeometry width="50" height="50" relative="1" as="geometry">
            <mxPoint x="406" as="sourcePoint" />
            <mxPoint x="456" y="-45" as="targetPoint" />
          </mxGeometry>
        </mxCell>
        <mxCell id="VyoIaBS4ln-BdQcuWxB6-102" value="" style="endArrow=none;html=1;rounded=0;entryX=0.942;entryY=0.691;entryDx=0;entryDy=0;entryPerimeter=0;curved=1;" edge="1" parent="1">
          <mxGeometry width="50" height="50" relative="1" as="geometry">
            <mxPoint x="410" y="17" as="sourcePoint" />
            <mxPoint x="481.36" y="15.279999999999973" as="targetPoint" />
            <Array as="points">
              <mxPoint x="446" y="32" />
            </Array>
          </mxGeometry>
        </mxCell>
        <mxCell id="VyoIaBS4ln-BdQcuWxB6-108" value="&lt;h2&gt;Jarvis @ APL, Raigarh&lt;/h2&gt;" style="rounded=1;whiteSpace=wrap;html=1;" vertex="1" parent="1">
          <mxGeometry x="245" y="-160" width="398" height="70" as="geometry" />
        </mxCell>
        <mxCell id="VyoIaBS4ln-BdQcuWxB6-110" value="" style="endArrow=classic;html=1;rounded=0;entryX=0;entryY=0.5;entryDx=0;entryDy=0;" edge="1" parent="1" target="VyoIaBS4ln-BdQcuWxB6-13">
          <mxGeometry width="50" height="50" relative="1" as="geometry">
            <mxPoint x="431" y="364.5" as="sourcePoint" />
            <mxPoint x="481" y="314.5" as="targetPoint" />
          </mxGeometry>
        </mxCell>
      </root>
    </mxGraphModel>
  </diagram>
</mxfile>
